<?xml version="1.0" encoding="utf-8"?>
<!-- Generator: Adobe Illustrator 26.0.2, SVG Export Plug-In . SVG Version: 6.00 Build 0)  -->
<svg version="1.1" id="Layer_1" xmlns="http://www.w3.org/2000/svg" xmlns:xlink="http://www.w3.org/1999/xlink" x="0px" y="0px"
	 viewBox="0 0 85 85" style="enable-background:new 0 0 85 85;" xml:space="preserve">
<style type="text/css">
	.st0{fill:#AF8F6E;}
	.st1{fill:#0073A4;}
</style>
<path class="st0" d="M65.34,65.75c-5.9,5.81-13.79,9.21-22.72,9.21c-14.07,0-26.07-8.9-30.66-21.38c0,0-0.87-2.8,0.87-4.14
	c3.52-2.72,9.79-4.91,12.97-5.11c3.18-0.21,7.13,0.49,11.96,4.98c4.83,4.5,6.68,7.95,9.14,8.52c1.96,0.45,3.32-1.52,7.26-2.16
	c2.59-0.43,5.96-0.64,9.87,4.75C66.39,63.7,65.34,65.75,65.34,65.75"/>
<path class="st0" d="M72,56.28c-5.78-4.6-8.65-7.28-18.11-4.98c-4.23,1.03-10.57-0.92-14.9-5.27c-5.51-5.53-9.45-6.38-10.83-6.66
	c-1.51-0.31-5.48-0.58-9.32-0.11c-0.09,0.01-0.24-0.58,1.1-1.11c1.55-0.6,4.71-1.56,8.59-0.57c3.39,0.86,9.54,5.04,11.03,6.24
	c2.03,1.64,4.29,2.99,7.28,4.2c4.28,1.72,8.26,0.49,8.26,0.49c11.01-3.72,18.5,3.86,18.6,3.49c0.36-1.27,0.64-2.53,0.94-3.87
	c-4.21-2.9-10.14-4.44-15.02-2.63c-4.15,1.55-7.24,2.11-10.91,1.05c-5.69-1.63-11.49-6.64-13.43-7.65c-1.34-0.7-4.58-3.34-9.96-3.3
	c-8.55,0.06-15.49,5.97-15.49,5.97c0.01,0.21,0.02,0.43,0.02,0.66c0,1.69,0.13,3.35,0.37,4.97c8.59-6.61,14.39-5.29,15.95-5.15
	c3.82,0.34,7.45,2.28,10.38,4.86c1.33,1.17,6.67,6.29,9.42,7.83c1.82,1.02,4.62,0.39,6.84-0.41c1.37-0.5,4.04-0.77,4.04-0.77
	c5.99-0.69,11.93,8.08,11.93,8.08c1.18-1.6,2.24-3.34,3.12-5.15"/>
<path class="st1" d="M49.64,51.59c2.97,0.45,9.01-1.5,12.27-0.91c5.65,1.03,9.97,5.88,10.08,5.68c0.33-0.55,1.69-4.06,1.69-4.34
	c0-0.06-8.15-7-17.55-3.88c-9.23,3.06-16.2-4.59-19.86-6.73c-3.67-2.14-8.66-6.17-16.26-3.36c-1.35,0.5-1.36,1.23-1.18,1.22
	c2.61-0.19,8.18-0.5,11.04,0.6c4.72,1.82,6.81,4.3,8.65,5.78C40.26,47.06,42.55,50.14,49.64,51.59"/>
<path class="st1" d="M42.52,9.47c-16.19,0-29.63,11.78-32.21,27.23c0,0,1.24,1.43,5.16,0.21c4.07-1.27,10.56-4.08,15.16-3.84
	c3.5,0.31,5.59,2.17,9.12,6.19c3.25,3.7,5.44,4.72,7.62,5.38c2.5,0.75,7.36-0.1,8.54-0.23c2.59-0.29,9.88-2.81,12.38-3.05
	c1.53-0.15,4.01,0.37,5.26,0.48c0.57,0.05,1.5-0.76,1.5-0.76C74.59,23.45,60.27,9.47,42.52,9.47 M52.02,43.41
	c0,0-2.43,0.91-5.58-0.42c-2.43-1.02-4.48-2.91-5.6-4.38c-2.2-2.89-4.39-4.63-4.39-4.63c1.58-2.65,4.65-4.59,7.96-4.59
	c5.01,0,9.07,4.06,9.07,9.07C53.48,40.29,52.94,41.99,52.02,43.41"/>
<g>
	<polygon points="0.5,38.27 0.81,36.82 6.59,36.71 6.59,36.69 1.34,34.35 1.74,32.47 7.5,32.43 7.51,32.41 2.28,29.95 2.56,28.61 
		9.07,31.87 8.69,33.65 2.92,33.71 2.91,33.73 8.16,36.13 7.77,37.92 	"/>
	<path d="M4.35,24.87l0.69-1.44l7.54,0.55l-0.68,1.41l-1.72-0.15l-1.23,2.57l1.19,1.25l-0.63,1.32L4.35,24.87z M5.96,24.78
		L5.95,24.8l2.18,2.17l0.89-1.86L5.96,24.78z"/>
	<path d="M9.41,18.16c-0.07,0.1-0.13,0.2-0.18,0.32c-0.05,0.12-0.08,0.25-0.09,0.38c-0.01,0.13,0.02,0.26,0.09,0.4
		c0.06,0.13,0.17,0.26,0.33,0.37c0.12,0.09,0.25,0.12,0.39,0.1c0.14-0.02,0.28-0.06,0.43-0.13c0.16-0.08,0.31-0.17,0.47-0.28
		c0.16-0.1,0.33-0.21,0.51-0.32c0.17-0.12,0.35-0.22,0.54-0.31c0.2-0.09,0.4-0.15,0.61-0.17c0.2-0.03,0.42-0.02,0.64,0.02
		c0.22,0.06,0.46,0.18,0.7,0.35c0.61,0.45,0.9,0.98,0.88,1.58c-0.02,0.6-0.25,1.2-0.68,1.8c-0.21,0.3-0.41,0.53-0.6,0.7
		c-0.19,0.18-0.41,0.38-0.67,0.61l-0.96-0.85c0.52-0.24,0.95-0.59,1.28-1.04c0.17-0.23,0.27-0.51,0.31-0.81
		c0.04-0.3-0.07-0.55-0.32-0.74c-0.14-0.1-0.28-0.15-0.42-0.15c-0.15,0.01-0.3,0.04-0.45,0.11c-0.31,0.16-0.64,0.36-0.99,0.59
		c-0.18,0.11-0.36,0.21-0.55,0.29c-0.19,0.09-0.38,0.16-0.59,0.2c-0.2,0.03-0.42,0.02-0.64-0.02c-0.22-0.04-0.45-0.15-0.68-0.31
		c-0.63-0.46-0.93-1-0.91-1.6c0.02-0.58,0.22-1.13,0.59-1.65c0.35-0.49,0.75-0.9,1.18-1.22l0.87,0.78
		C10.07,17.43,9.71,17.76,9.41,18.16"/>
	<polygon points="11.17,14.27 12.18,13.28 14.17,15.31 16.18,13.34 14.19,11.3 15.2,10.32 20.13,15.34 19.12,16.33 16.96,14.13 
		14.94,16.1 17.1,18.31 16.1,19.3 	"/>
	<rect x="18.96" y="7.86" transform="matrix(0.8032 -0.5958 0.5958 0.8032 -2.9079 13.9547)" width="1.41" height="7.04"/>
	<polygon points="19.89,6.83 21.41,5.99 26.29,9.33 26.31,9.32 23.78,4.7 24.97,4.05 28.35,10.22 26.83,11.05 21.94,7.73 
		21.93,7.74 24.45,12.35 23.27,13 	"/>
	<path d="M31.22,2.88c-0.78,0.25-1.31,0.67-1.59,1.25c-0.28,0.59-0.31,1.23-0.1,1.94c0.22,0.7,0.6,1.21,1.13,1.52
		c0.54,0.33,1.17,0.39,1.89,0.17c0.37-0.11,0.65-0.24,0.86-0.37l-0.54-1.75l-1.43,0.44l-0.33-1.06l2.72-0.84l1.12,3.62
		c-0.65,0.44-1.34,0.78-2.07,1.02c-1.1,0.34-2.07,0.34-2.91-0.02c-0.86-0.33-1.46-1.07-1.82-2.2c-0.69-2.38,0.17-3.96,2.58-4.74
		c0.76-0.23,1.45-0.34,2.06-0.33l0.27,1.16C32.42,2.63,31.81,2.69,31.22,2.88"/>
	<g>
		<polygon points="36.76,1.82 34.76,2.07 34.62,0.97 40.03,0.3 40.16,1.4 38.16,1.65 38.89,7.53 37.49,7.71 		"/>
		<path d="M41.94,1.12c0.62-0.63,1.48-0.92,2.61-0.88c1.11,0.07,1.95,0.44,2.51,1.13c0.56,0.68,0.81,1.56,0.76,2.65
			c-0.06,1.08-0.39,1.94-1,2.58c-0.62,0.65-1.5,0.96-2.62,0.92c-1.13-0.07-1.96-0.45-2.51-1.15c-0.56-0.69-0.81-1.58-0.76-2.67
			C40.98,2.6,41.32,1.74,41.94,1.12 M42.77,5.53c0.28,0.54,0.78,0.83,1.48,0.88c0.36,0.02,0.68-0.04,0.94-0.18
			c0.26-0.14,0.47-0.32,0.63-0.56c0.32-0.49,0.49-1.06,0.53-1.72c0.03-0.65-0.09-1.23-0.37-1.74c-0.29-0.53-0.79-0.81-1.48-0.86
			c-0.69-0.02-1.21,0.22-1.54,0.71c-0.34,0.48-0.52,1.05-0.56,1.7C42.36,4.42,42.48,5.01,42.77,5.53"/>
	</g>
	<g>
		<polygon points="49.84,0.85 51.52,1.27 52.86,7.02 52.88,7.03 54.14,1.92 55.46,2.24 53.76,9.08 52.09,8.66 50.74,2.9 50.72,2.9 
			49.45,8.01 48.14,7.68 		"/>
		<path d="M61.92,12.98c-0.53-0.13-1.03-0.32-1.51-0.58c-1.01-0.56-1.68-1.26-2-2.11c-0.35-0.85-0.24-1.79,0.32-2.84
			c1.24-2.15,2.97-2.62,5.2-1.42c0.44,0.24,0.86,0.59,1.25,1.03l-0.66,0.99C64.36,7.79,64.19,7.57,64,7.4
			c-0.2-0.16-0.41-0.3-0.63-0.42c-0.64-0.35-1.26-0.41-1.85-0.19C60.91,7,60.42,7.42,60.07,8.07c-0.35,0.64-0.46,1.26-0.31,1.87
			c0.13,0.62,0.53,1.11,1.18,1.48c0.25,0.14,0.52,0.25,0.8,0.34c0.27,0.09,0.5,0.14,0.69,0.15L61.92,12.98z"/>
		<path d="M66.85,9.08c0.87-0.13,1.74,0.16,2.61,0.88c0.85,0.73,1.29,1.53,1.32,2.42c0.04,0.88-0.3,1.74-0.99,2.57
			c-0.7,0.83-1.48,1.31-2.35,1.45c-0.89,0.14-1.77-0.14-2.64-0.85c-0.86-0.73-1.29-1.55-1.31-2.43c-0.03-0.89,0.3-1.75,1.01-2.59
			C65.19,9.68,65.98,9.2,66.85,9.08 M64.85,13.1c-0.1,0.6,0.12,1.13,0.65,1.6c0.28,0.23,0.56,0.37,0.85,0.42
			c0.29,0.05,0.57,0.03,0.84-0.06c0.55-0.2,1.04-0.55,1.46-1.05c0.42-0.5,0.67-1.04,0.76-1.61c0.08-0.59-0.14-1.12-0.67-1.58
			c-0.54-0.43-1.09-0.55-1.66-0.36c-0.56,0.18-1.05,0.52-1.47,1.02C65.19,11.97,64.94,12.51,64.85,13.1"/>
		<path d="M73.62,13.98l0.88,1.11l-3.19,2.52c-0.48,0.37-0.78,0.75-0.92,1.15c-0.15,0.41-0.06,0.82,0.27,1.23
			c0.33,0.42,0.71,0.6,1.14,0.55c0.41-0.05,0.85-0.26,1.32-0.64l3.19-2.52l0.88,1.11l-3.53,2.79c-1.43,1.1-2.72,0.9-3.87-0.6
			c-1.19-1.47-1.09-2.77,0.3-3.91L73.62,13.98z"/>
		<polygon points="78.6,20.68 79.38,22.22 75.91,27 75.91,27.02 80.61,24.63 81.22,25.84 74.94,29.03 74.16,27.49 77.64,22.7 
			77.63,22.68 72.93,25.07 72.32,23.87 		"/>
		<polygon points="81.39,29.74 80.8,27.81 81.87,27.48 83.44,32.7 82.38,33.02 81.79,31.09 76.12,32.8 75.71,31.45 		"/>
		<polygon points="79.76,36.54 83.64,33.43 83.86,35.07 81.15,37.11 84.3,38.4 84.5,39.88 79.95,37.94 77.19,38.31 77,36.91 		"/>
		<path d="M24.71,73.23c0.83-0.29,1.74-0.16,2.72,0.39c0.97,0.56,1.55,1.27,1.74,2.13c0.2,0.86,0.03,1.76-0.51,2.71
			c-0.54,0.94-1.22,1.56-2.05,1.86c-0.85,0.3-1.77,0.18-2.75-0.36c-0.98-0.56-1.55-1.28-1.73-2.15c-0.19-0.86-0.02-1.77,0.52-2.73
			C23.19,74.13,23.88,73.51,24.71,73.23 M23.48,77.55c0.01,0.61,0.32,1.09,0.93,1.45c0.32,0.18,0.62,0.27,0.92,0.26
			c0.29,0,0.57-0.07,0.81-0.21c0.5-0.29,0.92-0.73,1.24-1.3c0.32-0.57,0.47-1.14,0.45-1.73c-0.03-0.6-0.34-1.08-0.94-1.43
			c-0.61-0.33-1.17-0.34-1.69-0.05c-0.52,0.28-0.94,0.7-1.26,1.27C23.61,76.37,23.46,76.95,23.48,77.55"/>
		<path d="M31,75.56l1.45,0.46c0.37,0.12,0.74,0.24,1.11,0.36c0.37,0.14,0.69,0.31,0.96,0.51c0.28,0.2,0.48,0.46,0.58,0.77
			c0.1,0.31,0.08,0.69-0.06,1.17c-0.12,0.4-0.35,0.7-0.69,0.91c-0.33,0.21-0.73,0.28-1.18,0.21l-0.01,0.02
			c0.17,0.08,0.29,0.2,0.36,0.38c0.07,0.18,0.11,0.36,0.13,0.54l0.25,2.96l-1.5-0.47l-0.14-2.35c0-0.28-0.05-0.49-0.15-0.64
			c-0.1-0.15-0.29-0.26-0.57-0.35l-0.44-0.14l-0.88,2.79l-1.35-0.42L31,75.56z M31.45,78.85l0.44,0.14c0.17,0.05,0.35,0.1,0.53,0.12
			c0.17,0.03,0.34,0.04,0.49,0.02c0.16-0.02,0.3-0.08,0.42-0.17c0.12-0.1,0.21-0.26,0.27-0.45c0.06-0.21,0.08-0.38,0.04-0.53
			c-0.05-0.14-0.14-0.27-0.25-0.37c-0.12-0.1-0.26-0.19-0.42-0.26c-0.17-0.06-0.34-0.12-0.52-0.17l-0.44-0.14L31.45,78.85z"/>
	</g>
	<g>
		<polygon points="36.6,77.18 40.72,77.72 40.57,78.82 37.85,78.47 37.63,80.18 40.12,80.51 39.98,81.61 37.49,81.29 37.23,83.25 
			39.97,83.6 39.83,84.7 35.69,84.16 		"/>
		<path d="M45.41,78.58c-0.82,0.06-1.43,0.33-1.84,0.84c-0.42,0.5-0.6,1.12-0.56,1.86c0.04,0.73,0.29,1.31,0.74,1.74
			c0.44,0.45,1.04,0.66,1.79,0.62c0.38-0.02,0.69-0.07,0.92-0.16l-0.11-1.83l-1.49,0.09l-0.07-1.11l2.84-0.17l0.22,3.79
			c-0.74,0.27-1.49,0.44-2.25,0.5c-1.15,0.07-2.09-0.17-2.82-0.71c-0.75-0.53-1.17-1.39-1.24-2.57c-0.1-2.48,1.11-3.81,3.63-3.98
			c0.79-0.04,1.49,0.02,2.08,0.17l-0.02,1.19C46.64,78.63,46.03,78.54,45.41,78.58"/>
	</g>
	<g>
		<path d="M49.13,78.02c0.38-0.8,1.1-1.35,2.18-1.67c1.08-0.3,1.99-0.21,2.74,0.25c0.75,0.46,1.28,1.21,1.58,2.26
			c0.3,1.04,0.26,1.96-0.11,2.76c-0.38,0.82-1.11,1.39-2.18,1.72c-1.09,0.3-2,0.21-2.75-0.27c-0.75-0.47-1.28-1.23-1.59-2.28
			C48.71,79.74,48.75,78.82,49.13,78.02 M51.35,81.93c0.44,0.42,1.01,0.53,1.69,0.35c0.35-0.1,0.63-0.26,0.83-0.47
			c0.2-0.21,0.34-0.46,0.42-0.73c0.14-0.57,0.12-1.17-0.06-1.8c-0.18-0.63-0.49-1.14-0.92-1.53c-0.45-0.4-1.01-0.51-1.68-0.33
			c-0.66,0.21-1.07,0.6-1.22,1.18c-0.16,0.57-0.16,1.16,0.03,1.79C50.6,81.01,50.91,81.53,51.35,81.93"/>
		<polygon points="55.24,75.19 56.75,74.35 61.66,77.64 61.68,77.63 59.11,73.03 60.29,72.38 63.72,78.52 62.21,79.36 57.3,76.08 
			57.28,76.09 59.84,80.68 58.66,81.34 		"/>
	</g>
</g>
</svg>
